# xmcd CD database file
#
# Track frame offsets:
#	150
#	12524
#	20110
#	31615
#	38727
#
# Disc length: 736 seconds
#
# Revision: 0
# Processed by: cddbd v1.4PL0 Copyright (c) Steve Scherf et al.
# Submitted via: CDex 1.50Beta6
#
DISCID=3202de05
DTITLE=James Yorkston and The Athletes - Songs from Moving Up Country
DYEAR=2002
DGENRE=Country
TTITLE0=In Your Hands (edit)
TTITLE1=6:30 Is Just Way Too Early (edit)
TTITLE2=Tender to the Blues (edit)
TTITLE3=Cheating the Game (edit)
TTITLE4=A Man With My Skills
EXTD=YEAR: 2002
EXTT0=
EXTT1=
EXTT2=
EXTT3=
EXTT4=
PLAYORDER=
